<svg xmlns="http://www.w3.org/2000/svg" width="40" height="40" viewBox="0 0 40 40" fill="none">
<circle cx="20" cy="20" r="20" fill="#F49AA5"/>
<path d="M12.7871 12.5C12.3729 12.5 12.0371 12.8358 12.0371 13.25C12.0371 13.6642 12.3729 14 12.7871 14L12.7871 12.5ZM14.6621 13.25L15.3897 13.0681C15.3062 12.7342 15.0063 12.5 14.6621 12.5L14.6621 13.25ZM24.7871 23.75C25.2013 23.75 25.5371 23.4142 25.5371 23C25.5371 22.5858 25.2013 22.25 24.7871 22.25V23.75ZM26.2871 14.75L27.0147 14.9319C27.0707 14.7078 27.0204 14.4705 26.8783 14.2884C26.7361 14.1064 26.5181 14 26.2871 14V14.75ZM24.7871 20.75V21.5C25.1313 21.5 25.4312 21.2658 25.5147 20.9319L24.7871 20.75ZM12.7871 14L14.6621 14L14.6621 12.5L12.7871 12.5L12.7871 14ZM13.9345 13.4319L14.3095 14.9319L15.7647 14.5681L15.3897 13.0681L13.9345 13.4319ZM14.3095 14.9319L15.8095 20.9319L17.2647 20.5681L15.7647 14.5681L14.3095 14.9319ZM16.5371 20H16.1621V21.5H16.5371V20ZM16.1621 23.75H24.7871V22.25H16.1621V23.75ZM14.2871 21.875C14.2871 22.9105 15.1266 23.75 16.1621 23.75V22.25C15.955 22.25 15.7871 22.0821 15.7871 21.875H14.2871ZM16.1621 20C15.1266 20 14.2871 20.8395 14.2871 21.875H15.7871C15.7871 21.6679 15.955 21.5 16.1621 21.5V20ZM15.0371 15.5H26.2871V14H15.0371V15.5ZM25.5595 14.5681L24.0595 20.5681L25.5147 20.9319L27.0147 14.9319L25.5595 14.5681ZM24.7871 20H16.5371V21.5H24.7871V20ZM24.0371 26V27.5C24.8655 27.5 25.5371 26.8284 25.5371 26H24.0371ZM24.0371 26H22.5371C22.5371 26.8284 23.2087 27.5 24.0371 27.5V26ZM24.0371 26V24.5C23.2087 24.5 22.5371 25.1716 22.5371 26H24.0371ZM24.0371 26H25.5371C25.5371 25.1716 24.8655 24.5 24.0371 24.5V26ZM16.5371 26V27.5C17.3655 27.5 18.0371 26.8284 18.0371 26H16.5371ZM16.5371 26H15.0371C15.0371 26.8284 15.7087 27.5 16.5371 27.5V26ZM16.5371 26V24.5C15.7087 24.5 15.0371 25.1716 15.0371 26H16.5371ZM16.5371 26H18.0371C18.0371 25.1716 17.3655 24.5 16.5371 24.5V26Z" fill="white"/>
</svg>