<svg xmlns="http://www.w3.org/2000/svg" width="82" height="82" viewBox="0 0 82 82" fill="none">
  <g clip-path="url(#clip0_1101_3564)">
    <path d="M41.0029 82.0058C63.6482 82.0058 82.0058 63.6482 82.0058 41.0029C82.0058 18.3576 63.6482 0 41.0029 0C18.3576 0 0 18.3576 0 41.0029C0 63.6482 18.3576 82.0058 41.0029 82.0058Z" fill="#FEF7E6"/>
    <path opacity="0.6" d="M39.4643 6.56641C30.2767 13.1543 25.6636 17.9583 25.625 20.9785V61.9061L64.8343 37.1146L39.4643 6.56641Z" fill="url(#paint0_linear_1101_3564)"/>
    <path opacity="0.6" d="M42.3457 37.1263C31.1601 30.5692 25.5866 25.1866 25.6252 20.9785V61.9062L37.7172 75.5025L42.3457 37.1263Z" fill="url(#paint1_linear_1101_3564)"/>
    <path opacity="0.6" d="M39.4643 6.56641C30.2767 13.1543 25.6636 17.9583 25.625 20.9785V61.9061L64.8343 37.1146L39.4643 6.56641Z" fill="url(#paint2_linear_1101_3564)"/>
    <path d="M25.625 61.9117L40.4941 52.5273L39.9792 56.7567L25.625 61.9117Z" fill="#EB7034"/>
  </g>
  <defs>
    <linearGradient id="paint0_linear_1101_3564" x1="64.692" y1="39.2229" x2="24.8093" y2="36.1961" gradientUnits="userSpaceOnUse">
      <stop stop-color="#8E2C2D"/>
      <stop offset="1" stop-color="#FEE2D3"/>
    </linearGradient>
    <linearGradient id="paint1_linear_1101_3564" x1="28.7437" y1="47.177" x2="43.0158" y2="47.938" gradientUnits="userSpaceOnUse">
      <stop stop-color="#EE3124"/>
      <stop offset="1" stop-color="#F37561"/>
    </linearGradient>
    <linearGradient id="paint2_linear_1101_3564" x1="70.3573" y1="33.2244" x2="25.0128" y2="34.2281" gradientUnits="userSpaceOnUse">
      <stop stop-color="#EC5151"/>
      <stop offset="1" stop-color="#EB8850"/>
    </linearGradient>
    <clipPath id="clip0_1101_3564">
      <rect width="82" height="82" fill="white"/>
    </clipPath>
  </defs>
</svg>