<svg xmlns="http://www.w3.org/2000/svg" width="42" height="25" viewBox="0 0 42 25" fill="none">
  <path d="M41.4119 12.4235C41.4119 19.2405 35.8691 24.8471 28.9883 24.8471C22.1713 24.8471 16.5648 19.2405 16.5648 12.4235C16.5648 5.60652 22.1076 0 28.9246 0C35.8691 0 41.4119 5.60652 41.4119 12.4235Z" fill="#F9B50B"/>
  <path d="M24.7833 12.4872C24.7833 11.5953 24.6559 10.7033 24.5285 9.87511H16.8833C16.947 9.42914 17.0744 9.04688 17.2018 8.53719H24.0188C23.8914 8.09122 23.7003 7.64525 23.5091 7.19928H17.7115C17.9026 6.7533 18.1575 6.37104 18.4123 5.86136H22.8083C22.5535 5.41538 22.2349 4.96941 21.8527 4.52344H19.4317C19.8139 4.07747 20.1962 3.6952 20.7059 3.24923C18.5397 1.2105 15.609 0 12.3598 0C5.60651 0.191131 0 5.60652 0 12.4235C0 19.2405 5.54281 24.8471 12.4235 24.8471C15.6728 24.8471 18.5397 23.5729 20.7696 21.5978C21.2156 21.2156 21.5978 20.7696 22.0438 20.2599H19.4954C19.1768 19.8776 18.8583 19.4317 18.6034 18.9857H22.9357C23.1906 18.6034 23.4454 18.1575 23.6366 17.6478H17.8389C17.6478 17.2655 17.4567 16.8195 17.3292 16.3099H24.1462C24.5285 15.1631 24.7833 13.8889 24.7833 12.4872Z" fill="#C8191C"/>
  <path d="M16.8194 15.6092L17.0105 14.4624C16.9468 14.4624 16.8194 14.5261 16.692 14.5261C16.246 14.5261 16.1823 14.2713 16.246 14.1438L16.6283 11.8503H17.3291L17.5202 10.576H16.8831L17.0105 9.81152H15.6726C15.6726 9.81152 14.9081 14.1438 14.9081 14.6535C14.9081 15.418 15.3541 15.8003 15.9912 15.8003C16.3734 15.8003 16.692 15.6729 16.8194 15.6092Z" fill="white"/>
  <path d="M17.2656 13.5069C17.2656 15.3545 18.5398 15.8005 19.5592 15.8005C20.5149 15.8005 20.9608 15.6093 20.9608 15.6093L21.2157 14.3351C21.2157 14.3351 20.5149 14.6537 19.814 14.6537C18.3487 14.6537 18.6035 13.5706 18.6035 13.5706H21.2794C21.2794 13.5706 21.4705 12.7424 21.4705 12.3601C21.4705 11.5319 21.0245 10.4488 19.5592 10.4488C18.285 10.3851 17.2656 11.8504 17.2656 13.5069ZM19.5592 11.5956C20.26 11.5956 20.1326 12.4238 20.1326 12.4875H18.6673C18.731 12.4238 18.8584 11.5956 19.5592 11.5956Z" fill="white"/>
  <path d="M27.9052 15.6091L28.16 14.1437C28.16 14.1437 27.5229 14.4623 27.0132 14.4623C26.1213 14.4623 25.6753 13.7615 25.6753 12.9332C25.6753 11.3405 26.4398 10.5122 27.3955 10.5122C28.0326 10.5122 28.606 10.8945 28.606 10.8945L28.7971 9.49287C28.7971 9.49287 28.0326 9.17432 27.2681 9.17432C25.739 9.17432 24.2737 10.5122 24.2737 12.9969C24.2737 14.6534 25.0382 15.7365 26.631 15.7365C27.2044 15.8002 27.9052 15.6091 27.9052 15.6091Z" fill="white"/>
  <path d="M9.62027 10.3848C8.72832 10.3848 8.02751 10.6396 8.02751 10.6396L7.83637 11.7864C7.83637 11.7864 8.40977 11.5316 9.30171 11.5316C9.74769 11.5316 10.1299 11.5953 10.1299 11.9775C10.1299 12.2324 10.0662 12.2961 10.0662 12.2961H9.49284C8.34606 12.2961 7.13556 12.7421 7.13556 14.2711C7.13556 15.4816 7.90008 15.7364 8.40977 15.7364C9.30171 15.7364 9.74769 15.163 9.8114 15.163L9.74769 15.6727H10.8308L11.3404 12.0412C11.3404 10.4485 10.0662 10.3848 9.62027 10.3848ZM9.87511 13.3154C9.87511 13.5066 9.74769 14.5897 8.98316 14.5897C8.6009 14.5897 8.47348 14.2711 8.47348 14.08C8.47348 13.7614 8.66461 13.3154 9.68398 13.3154C9.8114 13.3154 9.87511 13.3154 9.87511 13.3154Z" fill="white"/>
  <path d="M12.6146 15.7367C12.9332 15.7367 14.5896 15.8004 14.5896 14.0165C14.5896 12.36 12.9969 12.6786 12.9969 12.0415C12.9969 11.7229 13.2517 11.5955 13.6977 11.5955C13.8888 11.5955 14.5896 11.6592 14.5896 11.6592L14.7808 10.4487C14.7808 10.4487 14.3348 10.3213 13.5066 10.3213C12.5509 10.3213 11.5315 10.7036 11.5315 12.0415C11.5315 13.5705 13.188 13.4431 13.188 14.0165C13.188 14.3988 12.742 14.4625 12.4235 14.4625C11.8501 14.4625 11.213 14.2713 11.213 14.2713L11.0219 15.4818C11.1493 15.6093 11.5315 15.7367 12.6146 15.7367Z" fill="white"/>
  <path d="M38.8635 9.36572L38.6086 11.1496C38.6086 11.1496 38.0989 10.5125 37.3344 10.5125C36.1239 10.5125 35.1046 11.9778 35.1046 13.698C35.1046 14.7811 35.6142 15.8642 36.761 15.8642C37.5256 15.8642 38.0352 15.3545 38.0352 15.3545L37.9715 15.8005H39.3094L40.2651 9.49314L38.8635 9.36572ZM38.2264 12.8061C38.2264 13.5069 37.9078 14.4626 37.1433 14.4626C36.6973 14.4626 36.4425 14.0803 36.4425 13.3795C36.4425 12.2964 36.8884 11.6593 37.5256 11.6593C37.9715 11.723 38.2264 12.0416 38.2264 12.8061Z" fill="white"/>
  <path d="M2.42106 15.6731L3.18558 10.9585L3.313 15.6731H4.20495L5.92513 10.9585L5.22432 15.6731H6.62595L7.70902 9.36572H5.54287L4.20495 13.2521L4.14124 9.36572H2.22993L1.14685 15.6731H2.42106Z" fill="white"/>
  <path d="M22.8084 15.6723C23.1907 13.5061 23.2544 11.7222 24.21 12.0408C24.3375 11.2125 24.5286 10.8303 24.656 10.5117H24.4012C23.8278 10.5117 23.3181 11.2762 23.3181 11.2762L23.4455 10.5754H22.1713L21.3431 15.6723H22.8084Z" fill="white"/>
  <path d="M30.9633 10.3848C30.0714 10.3848 29.3706 10.6396 29.3706 10.6396L29.1795 11.7864C29.1795 11.7864 29.7528 11.5316 30.6448 11.5316C31.0908 11.5316 31.473 11.5953 31.473 11.9775C31.473 12.2324 31.4093 12.2961 31.4093 12.2961H30.8359C29.6891 12.2961 28.4786 12.7421 28.4786 14.2711C28.4786 15.4816 29.2432 15.7364 29.7528 15.7364C30.6448 15.7364 31.0908 15.163 31.1545 15.163L31.0908 15.6727H32.3013L32.8109 12.0412C32.8109 10.4485 31.4093 10.3848 30.9633 10.3848ZM31.2819 13.3154C31.2819 13.5066 31.1545 14.5897 30.39 14.5897C30.0077 14.5897 29.8803 14.2711 29.8803 14.08C29.8803 13.7614 30.0714 13.3154 31.0908 13.3154C31.2182 13.3154 31.2182 13.3154 31.2819 13.3154Z" fill="white"/>
  <path d="M33.8302 15.6723C34.2125 13.5061 34.2762 11.7222 35.2318 12.0408C35.3593 11.2125 35.5504 10.8303 35.6778 10.5117H35.423C34.8496 10.5117 34.3399 11.2762 34.3399 11.2762L34.4673 10.5754H33.1931L32.3649 15.6723H33.8302Z" fill="white"/>
</svg>