<svg width="44" height="44" viewBox="0 0 44 44" fill="none" xmlns="http://www.w3.org/2000/svg">
<circle cx="22" cy="22" r="22" fill="#F49AA5"/>
<path d="M12.5399 15.0858C12.1737 15.2921 12 15.6042 12 16.0572C12 16.5052 12.1737 16.8223 12.5258 17.0186C12.6948 17.1092 12.9531 17.1143 22 17.1143C31.0469 17.1143 31.3052 17.1092 31.4742 17.0186C31.8263 16.8223 32 16.5102 32 16.0572C32 15.725 31.9249 15.5186 31.723 15.2871C31.4601 14.9801 32.1315 15.0002 21.9812 15.0002C13.5962 15.0052 12.6667 15.0103 12.5399 15.0858Z" fill="white"/>
<path d="M12.5399 21.5286C12.1737 21.735 12 22.0471 12 22.5001C12 22.9481 12.1737 23.2652 12.5258 23.4615C12.6948 23.5521 12.9531 23.5571 22 23.5571C31.0469 23.5571 31.3052 23.5521 31.4742 23.4615C31.8263 23.2652 32 22.9531 32 22.5001C32 22.1679 31.9249 21.9615 31.723 21.73C31.4601 21.4229 32.1315 21.4431 21.9812 21.4431C13.5962 21.4481 12.6667 21.4531 12.5399 21.5286Z" fill="white"/>
<path d="M12.5399 27.9715C12.1737 28.1779 12 28.49 12 28.943C12 29.391 12.1737 29.7081 12.5258 29.9044C12.6948 29.995 12.9531 30 22 30C31.0469 30 31.3052 29.995 31.4742 29.9044C31.8263 29.7081 32 29.396 32 28.943C32 28.6108 31.9249 28.4044 31.723 28.1729C31.4601 27.8658 32.1315 27.8859 21.9812 27.8859C13.5962 27.891 12.6667 27.896 12.5399 27.9715Z" fill="white"/>
</svg>
