<svg xmlns="http://www.w3.org/2000/svg" width="44" height="14" viewBox="0 0 44 14" fill="none">
  <path d="M39.549 0.588379H31.2139C31.6995 3.33978 34.3699 5.92934 37.2832 5.92934H43.9189C43.9999 5.68657 43.9998 5.28195 43.9998 5.03918C43.9998 2.61147 41.9768 0.588379 39.549 0.588379Z" fill="url(#paint0_linear_1_387)"/>
  <path d="M31.9425 6.41504V13.1317H35.9887V9.57105H39.5493C41.4915 9.57105 43.1909 8.19536 43.7574 6.41504H31.9425Z" fill="#4FAD50"/>
  <path d="M17.6999 0.588379V13.0506H21.2605C21.2605 13.0506 22.1507 13.0506 22.6362 12.1605C25.0639 7.38596 25.7922 5.92934 25.7922 5.92934H26.2778V13.0506H30.324V0.588379H26.7633C26.7633 0.588379 25.8732 0.669307 25.3876 1.47854C23.3645 5.60565 22.2316 7.70966 22.2316 7.70966H21.7461V0.588379H17.6999Z" fill="#4FAD50"/>
  <path d="M0.705872 13.1314V0.669189H4.75205C4.75205 0.669189 5.88499 0.669187 6.53238 2.44951C8.15085 7.14307 8.31271 7.79047 8.31271 7.79047C8.31271 7.79047 8.63639 6.65753 10.093 2.44951C10.7404 0.669187 11.8733 0.669189 11.8733 0.669189H15.9195V13.1314H11.8733V6.41477H11.3878L9.12194 13.1314H7.34162L5.07576 6.41477H4.59022V13.1314H0.705872Z" fill="#4FAD50"/>
  <defs>
    <linearGradient id="paint0_linear_1_387" x1="31.1995" y1="3.29714" x2="43.9712" y2="3.29714" gradientUnits="userSpaceOnUse">
      <stop stop-color="#27B1E6"/>
      <stop offset="1" stop-color="#148ACA"/>
    </linearGradient>
  </defs>
</svg>