<svg width="50" height="50" viewBox="0 0 50 50" fill="none" xmlns="http://www.w3.org/2000/svg">
<path d="M25 0L30.4352 4.71556L37.5 3.34937L39.8492 10.1508L46.6506 12.5L45.2844 19.5648L50 25L45.2844 30.4352L46.6506 37.5L39.8492 39.8492L37.5 46.6506L30.4352 45.2844L25 50L19.5648 45.2844L12.5 46.6506L10.1508 39.8492L3.34937 37.5L4.71556 30.4352L0 25L4.71556 19.5648L3.34937 12.5L10.1508 10.1508L12.5 3.34937L19.5648 4.71556L25 0Z" fill="#F15B40"/>
<path d="M21.455 29H20.4C20.3233 29 20.2617 28.98 20.215 28.94C20.1683 28.8967 20.1317 28.8517 20.105 28.805L18.25 25.85C18.2233 25.9333 18.1917 26.005 18.155 26.065L16.35 28.805C16.3167 28.8517 16.2783 28.8967 16.235 28.94C16.1917 28.98 16.1367 29 16.07 29H15.075L17.53 25.305L15.18 21.82H16.235C16.3117 21.82 16.3683 21.8317 16.405 21.855C16.4417 21.8783 16.4733 21.9133 16.5 21.96L18.315 24.775C18.3417 24.6883 18.3783 24.6083 18.425 24.535L20.125 21.98C20.155 21.9267 20.1883 21.8867 20.225 21.86C20.2617 21.8333 20.3083 21.82 20.365 21.82H21.38L19.015 25.26L21.455 29ZM28.308 21.82V29H27.243V24.06C27.243 23.91 27.2463 23.7533 27.253 23.59C27.2596 23.4233 27.2763 23.25 27.303 23.07C27.2396 23.23 27.1746 23.3783 27.108 23.515C27.0413 23.6517 26.9746 23.7733 26.908 23.88L23.698 28.665C23.648 28.7483 23.5813 28.825 23.498 28.895C23.418 28.965 23.3263 29 23.223 29H22.428V21.82H23.498V26.76C23.498 26.91 23.493 27.0683 23.483 27.235C23.4763 27.3983 23.4613 27.5717 23.438 27.755C23.498 27.595 23.5613 27.4467 23.628 27.31C23.6946 27.17 23.7613 27.0467 23.828 26.94L27.043 22.155C27.093 22.0717 27.158 21.995 27.238 21.925C27.318 21.855 27.4096 21.82 27.513 21.82H28.308ZM34.9792 22.71H32.6992V29H31.6392V22.71H29.3492V21.82H34.9792V22.71Z" fill="white"/>
</svg>
