<svg xmlns="http://www.w3.org/2000/svg" width="44" height="14" viewBox="0 0 44 14" fill="none">
  <path d="M40.7941 0.836914H38.0724C37.2496 0.836914 36.6166 1.0901 36.2369 1.91294L31.0466 13.7492H34.7178C34.7178 13.7492 35.3507 12.1668 35.4773 11.787C35.8571 11.787 39.4649 11.787 39.9713 11.787C40.0979 12.2301 40.4144 13.6859 40.4144 13.6859H43.7057L40.7941 0.836914ZM36.49 9.12862C36.8065 8.36908 37.8825 5.52078 37.8825 5.52078C37.8825 5.58408 38.199 4.76123 38.3256 4.31817L38.5788 5.45748C38.5788 5.45748 39.275 8.55896 39.4016 9.19192H36.49V9.12862Z" fill="#3362AB"/>
  <path d="M31.2999 9.50834C31.2999 12.1668 28.8947 13.939 25.1603 13.939C23.5779 13.939 22.0588 13.6225 21.236 13.2428L21.7423 10.3312L22.1854 10.5211C23.3247 11.0274 24.0843 11.2173 25.4768 11.2173C26.4895 11.2173 27.5655 10.8375 27.5655 9.95141C27.5655 9.38175 27.1224 9.00198 25.7299 8.36902C24.4007 7.73607 22.6285 6.72334 22.6285 4.88777C22.6285 2.35595 25.097 0.646973 28.5782 0.646973C29.9074 0.646973 31.0468 0.900155 31.743 1.21663L31.2366 4.00163L30.9835 3.74845C30.3505 3.49527 29.5277 3.24209 28.3251 3.24209C26.9958 3.30538 26.3629 3.87504 26.3629 4.38141C26.3629 4.95107 27.1224 5.39413 28.3251 5.96379C30.3505 6.91323 31.2999 7.98925 31.2999 9.50834Z" fill="#3362AB"/>
  <path d="M0.411743 0.963631L0.475039 0.710449H5.91845C6.678 0.710449 7.24766 0.963631 7.43754 1.78647L8.64016 7.48307C7.43754 4.44488 4.65254 1.97636 0.411743 0.963631Z" fill="#F9B50B"/>
  <path d="M16.2988 0.837221L10.7921 13.6862H7.05766L3.89288 2.92597C6.17152 4.38177 8.07039 6.66041 8.76664 8.24279L9.14641 9.572L12.5644 0.773926H16.2988V0.837221Z" fill="#3362AB"/>
  <path d="M17.7546 0.773926H21.2358L19.0205 13.6862H15.5392L17.7546 0.773926Z" fill="#3362AB"/>
</svg>